<mxfile host="www.draw.io" modified="2019-11-29T07:14:50.200Z" agent="Mozilla/5.0 (Macintosh; Intel Mac OS X 10.14; rv:69.0) Gecko/20100101 Firefox/69.0" etag="M2XfWfhKj8_bCiynNGkm" version="12.3.3" type="github" pages="1">
  <diagram id="HnadALZuNrHTWb2hspdR" name="Page-1">
    <mxGraphModel dx="946" dy="551" grid="0" gridSize="10" guides="1" tooltips="1" connect="1" arrows="1" fold="1" page="1" pageScale="1" pageWidth="827" pageHeight="1169" math="0" shadow="0">
      <root>
        <mxCell id="0"/>
        <mxCell id="1" parent="0"/>
        <mxCell id="aMSuyrUvauo1xaqV-vFX-2" value="&lt;div&gt;ODS&lt;/div&gt;" style="rounded=1;whiteSpace=wrap;html=1;" parent="1" vertex="1">
          <mxGeometry x="160" y="360" width="360" height="40" as="geometry"/>
        </mxCell>
        <mxCell id="aMSuyrUvauo1xaqV-vFX-3" value="DW" style="rounded=1;whiteSpace=wrap;html=1;" parent="1" vertex="1">
          <mxGeometry x="160" y="300" width="280" height="40" as="geometry"/>
        </mxCell>
        <mxCell id="aMSuyrUvauo1xaqV-vFX-4" value="DWS" style="rounded=1;whiteSpace=wrap;html=1;" parent="1" vertex="1">
          <mxGeometry x="300" y="240" width="140" height="40" as="geometry"/>
        </mxCell>
        <mxCell id="aMSuyrUvauo1xaqV-vFX-5" value="DM" style="rounded=1;whiteSpace=wrap;html=1;" parent="1" vertex="1">
          <mxGeometry x="160" y="180" width="280" height="40" as="geometry"/>
        </mxCell>
        <mxCell id="aMSuyrUvauo1xaqV-vFX-6" value="CM" style="rounded=1;whiteSpace=wrap;html=1;" parent="1" vertex="1">
          <mxGeometry x="160" y="120" width="280" height="40" as="geometry"/>
        </mxCell>
        <mxCell id="aMSuyrUvauo1xaqV-vFX-12" value="DIM" style="rounded=1;whiteSpace=wrap;html=1;" parent="1" vertex="1">
          <mxGeometry x="460" y="120" width="60" height="220" as="geometry"/>
        </mxCell>
        <mxCell id="aMSuyrUvauo1xaqV-vFX-13" value="MID" style="rounded=1;whiteSpace=wrap;html=1;" parent="1" vertex="1">
          <mxGeometry x="80" y="120" width="60" height="220" as="geometry"/>
        </mxCell>
        <mxCell id="aMSuyrUvauo1xaqV-vFX-36" value="" style="endArrow=classic;html=1;entryX=0.5;entryY=1;entryDx=0;entryDy=0;" parent="1" target="aMSuyrUvauo1xaqV-vFX-12" edge="1">
          <mxGeometry width="50" height="50" relative="1" as="geometry">
            <mxPoint x="490" y="360" as="sourcePoint"/>
            <mxPoint x="540" y="310" as="targetPoint"/>
          </mxGeometry>
        </mxCell>
        <mxCell id="aMSuyrUvauo1xaqV-vFX-37" value="" style="endArrow=classic;html=1;" parent="1" target="aMSuyrUvauo1xaqV-vFX-3" edge="1">
          <mxGeometry width="50" height="50" relative="1" as="geometry">
            <mxPoint x="300" y="360" as="sourcePoint"/>
            <mxPoint x="350" y="310" as="targetPoint"/>
          </mxGeometry>
        </mxCell>
        <mxCell id="aMSuyrUvauo1xaqV-vFX-38" value="" style="endArrow=classic;html=1;entryX=0.5;entryY=1;entryDx=0;entryDy=0;" parent="1" target="aMSuyrUvauo1xaqV-vFX-4" edge="1">
          <mxGeometry width="50" height="50" relative="1" as="geometry">
            <mxPoint x="370" y="300" as="sourcePoint"/>
            <mxPoint x="420" y="250" as="targetPoint"/>
          </mxGeometry>
        </mxCell>
        <mxCell id="aMSuyrUvauo1xaqV-vFX-39" value="" style="endArrow=classic;html=1;" parent="1" edge="1">
          <mxGeometry width="50" height="50" relative="1" as="geometry">
            <mxPoint x="240" y="300" as="sourcePoint"/>
            <mxPoint x="238" y="220" as="targetPoint"/>
          </mxGeometry>
        </mxCell>
        <mxCell id="aMSuyrUvauo1xaqV-vFX-40" value="" style="endArrow=classic;html=1;entryX=0.75;entryY=1;entryDx=0;entryDy=0;" parent="1" target="aMSuyrUvauo1xaqV-vFX-5" edge="1">
          <mxGeometry width="50" height="50" relative="1" as="geometry">
            <mxPoint x="370" y="240" as="sourcePoint"/>
            <mxPoint x="420" y="190" as="targetPoint"/>
          </mxGeometry>
        </mxCell>
        <mxCell id="aMSuyrUvauo1xaqV-vFX-41" value="" style="endArrow=classic;html=1;entryX=0.5;entryY=1;entryDx=0;entryDy=0;" parent="1" target="aMSuyrUvauo1xaqV-vFX-6" edge="1">
          <mxGeometry width="50" height="50" relative="1" as="geometry">
            <mxPoint x="300" y="180" as="sourcePoint"/>
            <mxPoint x="350" y="130" as="targetPoint"/>
          </mxGeometry>
        </mxCell>
        <mxCell id="aMSuyrUvauo1xaqV-vFX-42" value="" style="endArrow=classic;html=1;entryX=1;entryY=0.5;entryDx=0;entryDy=0;" parent="1" target="aMSuyrUvauo1xaqV-vFX-6" edge="1">
          <mxGeometry width="50" height="50" relative="1" as="geometry">
            <mxPoint x="460" y="140" as="sourcePoint"/>
            <mxPoint x="510" y="90" as="targetPoint"/>
          </mxGeometry>
        </mxCell>
        <mxCell id="aMSuyrUvauo1xaqV-vFX-43" value="" style="endArrow=classic;html=1;entryX=1;entryY=0.5;entryDx=0;entryDy=0;" parent="1" target="aMSuyrUvauo1xaqV-vFX-5" edge="1">
          <mxGeometry width="50" height="50" relative="1" as="geometry">
            <mxPoint x="460" y="200" as="sourcePoint"/>
            <mxPoint x="510" y="150" as="targetPoint"/>
          </mxGeometry>
        </mxCell>
        <mxCell id="aMSuyrUvauo1xaqV-vFX-44" value="" style="endArrow=classic;html=1;" parent="1" target="aMSuyrUvauo1xaqV-vFX-4" edge="1">
          <mxGeometry width="50" height="50" relative="1" as="geometry">
            <mxPoint x="460" y="260" as="sourcePoint"/>
            <mxPoint x="510" y="210" as="targetPoint"/>
          </mxGeometry>
        </mxCell>
        <mxCell id="aMSuyrUvauo1xaqV-vFX-45" value="" style="endArrow=classic;html=1;entryX=1;entryY=0.5;entryDx=0;entryDy=0;" parent="1" target="aMSuyrUvauo1xaqV-vFX-3" edge="1">
          <mxGeometry width="50" height="50" relative="1" as="geometry">
            <mxPoint x="460" y="320" as="sourcePoint"/>
            <mxPoint x="510" y="270" as="targetPoint"/>
          </mxGeometry>
        </mxCell>
      </root>
    </mxGraphModel>
  </diagram>
</mxfile>
